<!DOCTYPE svg PUBLIC "-//W3C//DTD SVG 1.1//EN" "http://www.w3.org/Graphics/SVG/1.1/DTD/svg11.dtd">
<!-- Uploaded to: SVG Repo, www.svgrepo.com, Transformed by: SVG Repo Mixer Tools -->
<svg fill="#c8c8c8" width="800px" height="800px" viewBox="0 0 96 96" xmlns="http://www.w3.org/2000/svg" stroke="#c8c8c8">
<g id="SVGRepo_bgCarrier" stroke-width="0"/>
<g id="SVGRepo_tracerCarrier" stroke-linecap="round" stroke-linejoin="round"/>
<g id="SVGRepo_iconCarrier">
<title/>
<path d="M90,18H56.4844L46.2422,7.7578A5.9956,5.9956,0,0,0,42,6H6a5.9966,5.9966,0,0,0-6,6V84a5.9966,5.9966,0,0,0,6,6H90a5.9966,5.9966,0,0,0,6-6V24A5.9966,5.9966,0,0,0,90,18ZM84,78H12V18H39.5156L49.7578,28.2422A5.9958,5.9958,0,0,0,54,30H84Z"/>
</g>
</svg>